<svg width="24" height="24" viewBox="0 0 24 24" fill="none" xmlns="http://www.w3.org/2000/svg">
<path d="M17.9999 14C17.4091 14.0039 16.8265 14.1386 16.2939 14.3945C15.7614 14.6504 15.2921 15.0211 14.9199 15.48L9.81991 13.13C10.0597 12.3957 10.0597 11.6042 9.81991 10.87L14.9199 8.51999C15.5215 9.24596 16.3602 9.73607 17.2881 9.90383C18.2159 10.0716 19.1731 9.90622 19.9909 9.4369C20.8086 8.96757 21.4343 8.22447 21.7575 7.33874C22.0806 6.453 22.0805 5.48157 21.7572 4.5959C21.4339 3.71022 20.8081 2.96724 19.9902 2.49806C19.1724 2.02889 18.2151 1.86369 17.2873 2.03162C16.3596 2.19955 15.5209 2.68981 14.9194 3.41589C14.318 4.14196 13.9923 5.05717 13.9999 5.99999C14.0029 6.23822 14.0263 6.47576 14.0699 6.70999L8.78991 9.13999C8.22699 8.58957 7.51415 8.21751 6.74071 8.07042C5.96727 7.92333 5.16762 8.00776 4.44196 8.31312C3.71629 8.61849 3.09687 9.13121 2.66131 9.78705C2.22574 10.4429 1.99341 11.2127 1.99341 12C1.99341 12.7873 2.22574 13.5571 2.66131 14.2129C3.09687 14.8688 3.71629 15.3815 4.44196 15.6869C5.16762 15.9922 5.96727 16.0767 6.74071 15.9296C7.51415 15.7825 8.22699 15.4104 8.78991 14.86L14.0699 17.29C14.0263 17.5242 14.0029 17.7618 13.9999 18C13.9999 18.7911 14.2345 19.5645 14.674 20.2223C15.1136 20.8801 15.7383 21.3928 16.4692 21.6955C17.2001 21.9983 18.0043 22.0775 18.7803 21.9231C19.5562 21.7688 20.2689 21.3878 20.8283 20.8284C21.3877 20.269 21.7687 19.5563 21.923 18.7804C22.0774 18.0044 21.9982 17.2002 21.6954 16.4693C21.3927 15.7384 20.88 15.1136 20.2222 14.6741C19.5644 14.2346 18.791 14 17.9999 14ZM17.9999 3.99999C18.3955 3.99999 18.7822 4.11729 19.111 4.33705C19.4399 4.55682 19.6963 4.86917 19.8477 5.23463C19.999 5.60008 20.0386 6.00221 19.9615 6.39017C19.8843 6.77813 19.6938 7.1345 19.4141 7.41421C19.1344 7.69391 18.778 7.88439 18.3901 7.96156C18.0021 8.03873 17.6 7.99913 17.2345 7.84775C16.8691 7.69638 16.5567 7.44003 16.337 7.11113C16.1172 6.78223 15.9999 6.39556 15.9999 5.99999C15.9999 5.46956 16.2106 4.96085 16.5857 4.58578C16.9608 4.21071 17.4695 3.99999 17.9999 3.99999ZM5.99991 14C5.60434 14 5.21766 13.8827 4.88877 13.6629C4.55987 13.4432 4.30352 13.1308 4.15215 12.7654C4.00077 12.3999 3.96116 11.9978 4.03834 11.6098C4.11551 11.2218 4.30599 10.8655 4.58569 10.5858C4.8654 10.3061 5.22176 10.1156 5.60973 10.0384C5.99769 9.96125 6.39982 10.0009 6.76527 10.1522C7.13073 10.3036 7.44308 10.56 7.66285 10.8889C7.88261 11.2178 7.99991 11.6044 7.99991 12C7.99991 12.5304 7.78919 13.0391 7.41412 13.4142C7.03905 13.7893 6.53034 14 5.99991 14ZM17.9999 20C17.6043 20 17.2177 19.8827 16.8888 19.6629C16.5599 19.4432 16.3035 19.1308 16.1521 18.7654C16.0008 18.3999 15.9612 17.9978 16.0383 17.6098C16.1155 17.2218 16.306 16.8655 16.5857 16.5858C16.8654 16.3061 17.2218 16.1156 17.6097 16.0384C17.9977 15.9613 18.3998 16.0009 18.7653 16.1522C19.1307 16.3036 19.4431 16.56 19.6628 16.8889C19.8826 17.2177 19.9999 17.6044 19.9999 18C19.9999 18.5304 19.7892 19.0391 19.4141 19.4142C19.039 19.7893 18.5303 20 17.9999 20Z" fill="#1F2937"/>
</svg>
