<svg width="100" height="100" viewBox="0 0 100 100" fill="none" xmlns="http://www.w3.org/2000/svg">
<rect width="100" height="100" fill="#D41616"/>
<path d="M36.6044 64.6721V53.2622H41.7191L46.8339 54.0491L51.1618 57.1967L57.8504 57.5901L59.4242 58.377V60.3442L68.8668 57.5901H71.6209L73.9816 59.1639L55.4897 68.2131L52.3422 69L46.047 67.4262L36.6044 64.6721Z" fill="#D41616"/>
<path fill-rule="evenodd" clip-rule="evenodd" d="M28.6562 67.1418H36.5421V51.3701H28.6562V67.1418Z" fill="#D41616" stroke="white" stroke-width="2" stroke-linejoin="round"/>
<path fill-rule="evenodd" clip-rule="evenodd" d="M36.5422 64.1835C57.6941 71.2335 49.891 71.3084 74 59.2549C71.9044 57.1612 70.2503 56.6663 68.0856 57.2834L59.3442 60.1834" fill="#D41616"/>
<path d="M36.5422 64.1835C57.6941 71.2335 49.891 71.3084 74 59.2549C71.9044 57.1612 70.2503 56.6663 68.0856 57.2834L59.3442 60.1834" stroke="white" stroke-width="2" stroke-linecap="round" stroke-linejoin="round"/>
<path fill-rule="evenodd" clip-rule="evenodd" d="M36.5422 53.3416H42.4566C47.0955 53.3416 50.3425 56.2987 51.3282 57.2845H57.2426C60.3851 57.2845 60.3851 61.2274 57.2426 61.2274H46.3995" fill="#D41616"/>
<path d="M36.5422 53.3416H42.4566C47.0955 53.3416 50.3425 56.2987 51.3282 57.2845H57.2426C60.3851 57.2845 60.3851 61.2274 57.2426 61.2274H46.3995" stroke="white" stroke-width="2" stroke-linecap="round" stroke-linejoin="round"/>
<path fill-rule="evenodd" clip-rule="evenodd" d="M59.8176 49.3278C65.6852 49.3278 70.4406 44.5715 70.4406 38.7048C70.4406 32.8372 65.6852 28.0818 59.8176 28.0818C53.95 28.0818 49.1946 32.8372 49.1946 38.7048C49.1946 44.5715 53.95 49.3278 59.8176 49.3278ZM64.8981 37.8153C64.8981 40.5523 59.8175 44.2473 59.8175 44.2473C59.8175 44.2473 54.737 40.5523 54.737 37.8153C54.737 34.657 58.8938 33.2902 59.8175 36.3442C60.7413 33.2902 64.8981 34.657 64.8981 37.8153Z" fill="white"/>
</svg>
