<svg width="40" height="40" viewBox="0 0 40 40" fill="none" xmlns="http://www.w3.org/2000/svg">
<path d="M30.3744 31.7886C30.7649 32.1791 31.3981 32.1791 31.7886 31.7886C32.1791 31.3981 32.1791 30.7649 31.7886 30.3744L30.3744 31.7886ZM24.364 11.636C27.8787 15.1508 27.8787 20.8492 24.364 24.364L25.7782 25.7782C30.0739 21.4824 30.0739 14.5176 25.7782 10.2218L24.364 11.636ZM24.364 24.364C20.8492 27.8787 15.1508 27.8787 11.636 24.364L10.2218 25.7782C14.5176 30.0739 21.4824 30.0739 25.7782 25.7782L24.364 24.364ZM11.636 24.364C8.12132 20.8492 8.12132 15.1508 11.636 11.636L10.2218 10.2218C5.92606 14.5176 5.92606 21.4824 10.2218 25.7782L11.636 24.364ZM11.636 11.636C15.1508 8.12132 20.8492 8.12132 24.364 11.636L25.7782 10.2218C21.4824 5.92606 14.5176 5.92606 10.2218 10.2218L11.636 11.636ZM31.7886 30.3744L25.4246 24.0104L24.0104 25.4246L30.3744 31.7886L31.7886 30.3744Z" fill="#1F2937"/>
</svg>
