<svg width="24" height="24" viewBox="0 0 24 24" fill="none" xmlns="http://www.w3.org/2000/svg">
<path d="M14.0401 7.43838C14.0401 7.43838 12.1941 7.43838 10.5184 9.0295V2.625H6.375V19.4534H10.5594V18.1362C10.5594 18.1362 11.5472 19.875 14.037 19.875C14.037 19.875 19.875 19.6657 19.875 13.5936C19.875 13.5936 19.6604 7.43838 14.037 7.43838H14.0401ZM13.1282 16.3204C11.6576 16.3204 10.4648 15.157 10.4648 13.7229C10.4648 12.2887 11.6576 11.1284 13.1282 11.1284C14.5987 11.1284 15.7884 12.2918 15.7884 13.7229C15.7884 15.1539 14.5955 16.3204 13.1282 16.3204V16.3204Z" fill="#1F2937"/>
</svg>
